<?xml version="1.0" encoding="utf-8"?>
<!-- Generator: Adobe Illustrator 27.5.0, SVG Export Plug-In . SVG Version: 6.00 Build 0)  -->
<svg version="1.1" xmlns="http://www.w3.org/2000/svg" xmlns:xlink="http://www.w3.org/1999/xlink" x="0px" y="0px"
	 viewBox="0 0 752 423" style="enable-background:new 0 0 752 423;" xml:space="preserve">
<g id="BACKGROUND">
	<rect style="fill:#EDE6D4;" width="752" height="423"/>
</g>
<g id="Capa_3">
	<g>
		<defs>
			<rect id="SVGID_1_" width="752" height="423"/>
		</defs>
		<clipPath id="SVGID_00000129186441618515793110000010375839872262253997_">
			<use xlink:href="#SVGID_1_"  style="overflow:visible;"/>
		</clipPath>
		<g style="clip-path:url(#SVGID_00000129186441618515793110000010375839872262253997_);">
			<path style="fill:#FC3E00;" d="M627.969,364.593c0-68.502,55.531-124.031,124.031-124.031v-30.03
				c-85.085,0-154.061,68.975-154.061,154.061S666.915,518.654,752,518.654v-30.03C683.5,488.624,627.969,433.092,627.969,364.593z"
				/>
			<path style="fill:#5073B3;" d="M676.327,364.593c0-41.794,33.879-75.675,75.673-75.675v-18.322
				c-51.913,0-93.997,42.083-93.997,93.997c0,51.913,42.083,93.997,93.997,93.997v-18.322
				C710.206,440.268,676.327,406.387,676.327,364.593z"/>
		</g>
		<g style="clip-path:url(#SVGID_00000129186441618515793110000010375839872262253997_);">
			<path style="fill:#FC3E00;" d="M149.946,423c1.956-52.244,44.903-94.004,97.621-94.004v-33.768
				c0-53.964-43.744-97.713-97.711-97.713c-53.967,0-97.713,43.749-97.713,97.713L52.14,423H149.946z"/>
			<path style="fill:#EB9B94;" d="M247.567,423v-94.004c-52.717,0-95.665,41.76-97.621,94.004H247.567z"/>
		</g>
		<g style="clip-path:url(#SVGID_00000129186441618515793110000010375839872262253997_);">
			<path style="fill:#5073B3;" d="M489.467,238.695V0h-85.304v123.912c0,47.113-38.193,85.304-85.304,85.304v29.48
				c0,47.11,38.191,85.303,85.304,85.303C451.277,323.998,489.467,285.805,489.467,238.695z"/>
			<path style="fill:#EB9B94;" d="M233.557,0v123.912c0,47.113,38.191,85.304,85.304,85.304V0H233.557z"/>
			<path style="fill:#015D8E;" d="M404.164,123.912V0H318.86v209.215C365.971,209.215,404.164,171.025,404.164,123.912z"/>
		</g>
		<g style="clip-path:url(#SVGID_00000129186441618515793110000010375839872262253997_);">
			
				<ellipse transform="matrix(0.7162 -0.6979 0.6979 0.7162 44.266 380.7585)" style="fill:#E5CEAE;" cx="490.302" cy="135.951" rx="67.255" ry="66.539"/>
			<path style="fill:#E58D05;" d="M538.47,89.014c-13.224-13.571-30.891-20.174-48.55-19.884l0.764,133.643
				c16.588-0.27,33.171-6.612,46.055-19.166C563.342,157.683,564.117,115.334,538.47,89.014z"/>
		</g>
		<g style="clip-path:url(#SVGID_00000129186441618515793110000010375839872262253997_);">
			<g>
				<g>
					<path style="fill:#E58D05;" d="M89.551,16.829l-149.875,0.217l0.155,107.124l149.875-0.217
						c29.584-0.043,53.527-24.056,53.484-53.64C143.148,40.734,119.135,16.786,89.551,16.829z"/>
				</g>
			</g>
		</g>
		<g style="clip-path:url(#SVGID_00000129186441618515793110000010375839872262253997_);">
			<g>
				<g>
					<g>
						<g>
							<path style="fill:#FC3E00;" d="M89.892,104.588c0-4.728,3.832-8.557,8.557-8.557c4.728,0,8.559,3.83,8.559,8.557
								c0,4.728-3.832,8.557-8.559,8.557C93.724,113.145,89.892,109.316,89.892,104.588z"/>
						</g>
						<g>
							<path style="fill:#FC3E00;" d="M65.772,104.588c0-4.728,3.832-8.557,8.56-8.557c4.725,0,8.557,3.83,8.557,8.557
								c0,4.728-3.832,8.557-8.557,8.557C69.604,113.145,65.772,109.316,65.772,104.588z"/>
						</g>
						<g>
							<path style="fill:#FC3E00;" d="M41.653,104.588c0-4.728,3.832-8.557,8.557-8.557c4.728,0,8.56,3.83,8.56,8.557
								c0,4.728-3.832,8.557-8.56,8.557C45.485,113.145,41.653,109.316,41.653,104.588z"/>
						</g>
						<g>
							<path style="fill:#FC3E00;" d="M17.534,104.588c0-4.728,3.832-8.557,8.56-8.557c4.725,0,8.557,3.83,8.557,8.557
								c0,4.728-3.832,8.557-8.557,8.557C21.366,113.145,17.534,109.316,17.534,104.588z"/>
						</g>
					</g>
				</g>
				<g>
					<path style="fill:#5073B3;" d="M89.892,138.697c0-4.727,3.832-8.557,8.557-8.557c4.728,0,8.559,3.83,8.559,8.557
						c0,4.728-3.832,8.557-8.559,8.557C93.724,147.255,89.892,143.425,89.892,138.697z"/>
					<path style="fill:#5073B3;" d="M65.772,138.697c0-4.727,3.832-8.557,8.56-8.557c4.725,0,8.557,3.83,8.557,8.557
						c0,4.728-3.832,8.557-8.557,8.557C69.604,147.255,65.772,143.425,65.772,138.697z"/>
					<path style="fill:#5073B3;" d="M41.653,138.697c0-4.727,3.832-8.557,8.557-8.557c4.728,0,8.56,3.83,8.56,8.557
						c0,4.728-3.832,8.557-8.56,8.557C45.485,147.255,41.653,143.425,41.653,138.697z"/>
					<path style="fill:#5073B3;" d="M17.534,138.697c0-4.727,3.832-8.557,8.56-8.557c4.725,0,8.557,3.83,8.557,8.557
						c0,4.728-3.832,8.557-8.557,8.557C21.366,147.255,17.534,143.425,17.534,138.697z"/>
				</g>
				<g>
					<path style="fill:#5073B3;" d="M89.892,172.807c0-4.727,3.832-8.557,8.557-8.557c4.728,0,8.559,3.83,8.559,8.557
						c0,4.728-3.832,8.557-8.559,8.557C93.724,181.364,89.892,177.535,89.892,172.807z"/>
					<path style="fill:#5073B3;" d="M65.772,172.807c0-4.727,3.832-8.557,8.56-8.557c4.725,0,8.557,3.83,8.557,8.557
						c0,4.728-3.832,8.557-8.557,8.557C69.604,181.364,65.772,177.535,65.772,172.807z"/>
					<path style="fill:#5073B3;" d="M41.653,172.807c0-4.727,3.832-8.557,8.557-8.557c4.728,0,8.56,3.83,8.56,8.557
						c0,4.728-3.832,8.557-8.56,8.557C45.485,181.364,41.653,177.535,41.653,172.807z"/>
					<path style="fill:#5073B3;" d="M17.534,172.807c0-4.727,3.832-8.557,8.56-8.557c4.725,0,8.557,3.83,8.557,8.557
						c0,4.728-3.832,8.557-8.557,8.557C21.366,181.364,17.534,177.535,17.534,172.807z"/>
				</g>
			</g>
		</g>
		<g style="clip-path:url(#SVGID_00000129186441618515793110000010375839872262253997_);">
			<rect x="519.286" y="349.019" style="fill:#5073B3;" width="56.854" height="73.981"/>
			<rect x="519.286" y="312.635" style="fill:#5073B3;" width="56.854" height="24.559"/>
			<rect x="519.286" y="276.169" style="fill:#5073B3;" width="56.854" height="24.561"/>
			<rect x="519.286" y="253.16" style="fill:#5073B3;" width="56.854" height="12.28"/>
		</g>
		<g style="clip-path:url(#SVGID_00000129186441618515793110000010375839872262253997_);">
			<g>
				<g>
					<path style="fill:#E58D05;" d="M635.896,14.638c0,4.253-3.448,7.704-7.701,7.704c-4.253,0-7.7-3.451-7.7-7.704
						c0-4.252,3.448-7.7,7.7-7.7C632.448,6.938,635.896,10.386,635.896,14.638z"/>
					<path style="fill:#E58D05;" d="M657.593,14.638c0,4.253-3.448,7.704-7.697,7.704c-4.253,0-7.7-3.451-7.7-7.704
						c0-4.252,3.448-7.7,7.7-7.7C654.146,6.938,657.593,10.386,657.593,14.638z"/>
					<path style="fill:#E58D05;" d="M679.294,14.638c0,4.253-3.445,7.704-7.697,7.704c-4.256,0-7.703-3.451-7.703-7.704
						c0-4.252,3.448-7.7,7.703-7.7C675.849,6.938,679.294,10.386,679.294,14.638z"/>
				</g>
				<g>
					<path style="fill:#E58D05;" d="M635.896,38.091c0,4.252-3.448,7.697-7.701,7.697c-4.253,0-7.7-3.445-7.7-7.697
						c0-4.256,3.448-7.701,7.7-7.701C632.448,30.391,635.896,33.835,635.896,38.091z"/>
					<path style="fill:#E58D05;" d="M657.593,38.091c0,4.252-3.448,7.697-7.697,7.697c-4.253,0-7.7-3.445-7.7-7.697
						c0-4.256,3.448-7.701,7.7-7.701C654.146,30.391,657.593,33.835,657.593,38.091z"/>
					<path style="fill:#E58D05;" d="M679.294,38.091c0,4.252-3.445,7.697-7.697,7.697c-4.256,0-7.703-3.445-7.703-7.697
						c0-4.256,3.448-7.701,7.703-7.701C675.849,30.391,679.294,33.835,679.294,38.091z"/>
				</g>
				<g>
					<path style="fill:#E58D05;" d="M635.896,61.538c0,4.252-3.448,7.7-7.701,7.7c-4.253,0-7.7-3.448-7.7-7.7
						c0-4.253,3.448-7.701,7.7-7.701C632.448,53.838,635.896,57.285,635.896,61.538z"/>
					<path style="fill:#E58D05;" d="M657.593,61.538c0,4.252-3.448,7.7-7.697,7.7c-4.253,0-7.7-3.448-7.7-7.7
						c0-4.253,3.448-7.701,7.7-7.701C654.146,53.838,657.593,57.285,657.593,61.538z"/>
					<path style="fill:#E58D05;" d="M679.294,61.538c0,4.252-3.445,7.7-7.697,7.7c-4.256,0-7.703-3.448-7.703-7.7
						c0-4.253,3.448-7.701,7.703-7.701C675.849,53.838,679.294,57.285,679.294,61.538z"/>
					<path style="fill:#E58D05;" d="M700.994,61.538c0,4.252-3.448,7.7-7.701,7.7c-4.253,0-7.697-3.448-7.697-7.7
						c0-4.253,3.444-7.701,7.697-7.701C697.547,53.838,700.994,57.285,700.994,61.538z"/>
					<path style="fill:#E58D05;" d="M722.695,61.538c0,4.252-3.448,7.7-7.701,7.7c-4.253,0-7.7-3.448-7.7-7.7
						c0-4.253,3.448-7.701,7.7-7.701C719.247,53.838,722.695,57.285,722.695,61.538z"/>
					<path style="fill:#E58D05;" d="M744.395,61.538c0,4.252-3.451,7.7-7.703,7.7c-4.25,0-7.697-3.448-7.697-7.7
						c0-4.253,3.448-7.701,7.697-7.701C740.944,53.838,744.395,57.285,744.395,61.538z"/>
				</g>
				<g>
					<path style="fill:#E58D05;" d="M635.896,84.991c0,4.252-3.448,7.7-7.701,7.7c-4.253,0-7.7-3.448-7.7-7.7
						c0-4.253,3.448-7.701,7.7-7.701C632.448,77.29,635.896,80.738,635.896,84.991z"/>
					<path style="fill:#E58D05;" d="M657.593,84.991c0,4.252-3.448,7.7-7.697,7.7c-4.253,0-7.7-3.448-7.7-7.7
						c0-4.253,3.448-7.701,7.7-7.701C654.146,77.29,657.593,80.738,657.593,84.991z"/>
					<path style="fill:#E58D05;" d="M679.294,84.991c0,4.252-3.445,7.7-7.697,7.7c-4.256,0-7.703-3.448-7.703-7.7
						c0-4.253,3.448-7.701,7.703-7.701C675.849,77.29,679.294,80.738,679.294,84.991z"/>
					<path style="fill:#E58D05;" d="M700.994,84.991c0,4.252-3.448,7.7-7.701,7.7c-4.253,0-7.697-3.448-7.697-7.7
						c0-4.253,3.444-7.701,7.697-7.701C697.547,77.29,700.994,80.738,700.994,84.991z"/>
					<path style="fill:#E58D05;" d="M722.695,84.991c0,4.252-3.448,7.7-7.701,7.7c-4.253,0-7.7-3.448-7.7-7.7
						c0-4.253,3.448-7.701,7.7-7.701C719.247,77.29,722.695,80.738,722.695,84.991z"/>
					<path style="fill:#E58D05;" d="M744.395,84.991c0,4.252-3.451,7.7-7.703,7.7c-4.25,0-7.697-3.448-7.697-7.7
						c0-4.253,3.448-7.701,7.697-7.701C740.944,77.29,744.395,80.738,744.395,84.991z"/>
				</g>
				<g>
					<path style="fill:#E58D05;" d="M679.294,108.444c0,4.246-3.445,7.694-7.697,7.694c-4.256,0-7.703-3.448-7.703-7.694
						c0-4.259,3.448-7.703,7.703-7.703C675.849,100.74,679.294,104.185,679.294,108.444z"/>
					<path style="fill:#E58D05;" d="M700.994,108.444c0,4.246-3.448,7.694-7.701,7.694c-4.253,0-7.697-3.448-7.697-7.694
						c0-4.259,3.444-7.703,7.697-7.703C697.547,100.74,700.994,104.185,700.994,108.444z"/>
					<path style="fill:#E58D05;" d="M722.695,108.444c0,4.246-3.448,7.694-7.701,7.694c-4.253,0-7.7-3.448-7.7-7.694
						c0-4.259,3.448-7.703,7.7-7.703C719.247,100.74,722.695,104.185,722.695,108.444z"/>
					<path style="fill:#E58D05;" d="M744.395,108.444c0,4.246-3.451,7.694-7.703,7.694c-4.25,0-7.697-3.448-7.697-7.694
						c0-4.259,3.448-7.703,7.697-7.703C740.944,100.74,744.395,104.185,744.395,108.444z"/>
				</g>
				<g>
					<path style="fill:#E58D05;" d="M679.294,131.89c0,4.253-3.445,7.701-7.697,7.701c-4.256,0-7.703-3.448-7.703-7.701
						c0-4.252,3.448-7.697,7.703-7.697C675.849,124.193,679.294,127.638,679.294,131.89z"/>
					<path style="fill:#E58D05;" d="M700.994,131.89c0,4.253-3.448,7.701-7.701,7.701c-4.253,0-7.697-3.448-7.697-7.701
						c0-4.252,3.444-7.697,7.697-7.697C697.547,124.193,700.994,127.638,700.994,131.89z"/>
					<path style="fill:#E58D05;" d="M722.695,131.89c0,4.253-3.448,7.701-7.701,7.701c-4.253,0-7.7-3.448-7.7-7.701
						c0-4.252,3.448-7.697,7.7-7.697C719.247,124.193,722.695,127.638,722.695,131.89z"/>
					<path style="fill:#E58D05;" d="M744.395,131.89c0,4.253-3.451,7.701-7.703,7.701c-4.25,0-7.697-3.448-7.697-7.701
						c0-4.252,3.448-7.697,7.697-7.697C740.944,124.193,744.395,127.638,744.395,131.89z"/>
				</g>
			</g>
		</g>
		<g style="clip-path:url(#SVGID_00000129186441618515793110000010375839872262253997_);">
			<rect x="214.339" y="383.935" style="fill:#EB9B94;" width="246.976" height="9.749"/>
			<rect x="214.339" y="383.935" style="fill:#5073B3;" width="33.319" height="9.749"/>
		</g>
	</g>
</g>
</svg>
